<svg width="220" height="40" viewBox="0 0 220 40" fill="none" xmlns="http://www.w3.org/2000/svg">
<path d="M65.8011 17.6046V29.7907H60.8125V12.2378C60.8125 10.3613 61.8323 9.19031 63.419 9.19031C64.1801 9.19031 64.7242 9.44176 65.432 10.0873L77.9015 21.4064V9.22033H82.8862V27.0247C82.8862 28.9013 81.8398 30.0722 80.2797 30.0722C79.8993 30.0729 79.5232 29.9932 79.1766 29.8384C78.83 29.6837 78.5211 29.4576 78.2706 29.1752L65.8011 17.6046Z" fill="white"/>
<path d="M96.7596 29.7907C90.7779 29.7907 86.3867 25.3209 86.3867 19.4211C86.3867 13.4387 90.7779 9.47177 96.7596 9.47177H101.942C108.095 9.47177 112.346 13.5251 112.346 19.4211C112.346 25.3171 107.981 29.7907 101.942 29.7907H96.7596ZM101.942 24.6228C105.005 24.6228 107.132 22.5511 107.132 19.6725C107.132 16.7939 104.975 14.6134 101.942 14.6134H96.7596C96.0807 14.5943 95.405 14.712 94.7739 14.9595C94.1428 15.2069 93.5695 15.5789 93.0893 16.0525C92.6091 16.5262 92.2319 17.0916 91.9811 17.714C91.7302 18.3365 91.6108 19.0029 91.6302 19.6725C91.6302 22.5811 93.7535 24.6228 96.7596 24.6228H101.942Z" fill="white"/>
<path d="M115.925 29.7907V24.6228H131.594C132.812 24.6228 133.55 24.0598 133.55 23.054C133.55 22.0482 132.812 21.4064 131.594 21.4064H122.412C118.192 21.4064 115.586 19.0007 115.586 15.4804C115.586 12.0426 118.021 9.47552 122.469 9.47552H137.462V14.6172H122.469C122.274 14.6012 122.077 14.6279 121.894 14.6956C121.71 14.7632 121.543 14.87 121.406 15.0084C121.269 15.1468 121.165 15.3134 121.101 15.4962C121.037 15.679 121.014 15.8735 121.035 16.0659C121.015 16.2589 121.039 16.4539 121.104 16.6369C121.169 16.82 121.274 16.9868 121.412 17.1256C121.549 17.2644 121.716 17.3718 121.9 17.4403C122.084 17.5088 122.281 17.5367 122.477 17.522H131.609C136.115 17.522 138.527 19.3986 138.527 23.5269C138.527 27.1035 136.244 29.787 131.609 29.787L115.925 29.7907Z" fill="white"/>
<path d="M145.685 13.101C145.963 12.1119 146.506 11.2148 147.256 10.5039C147.995 9.81705 149.007 9.47177 150.301 9.47177H156.45C157.594 9.41372 158.719 9.78212 159.6 10.5039C160.389 11.1974 160.96 12.0984 161.248 13.101L166.32 29.7907H160.662L159.281 24.9118L157.896 20.0328L156.309 14.347H150.601L146.248 29.787H140.59L145.685 13.101Z" fill="white"/>
<path d="M199.38 13.101C199.657 12.1123 200.199 11.2152 200.948 10.5039C201.686 9.81705 202.698 9.47177 203.992 9.47177H210.141C211.286 9.41372 212.41 9.78212 213.292 10.5039C214.08 11.1974 214.652 12.0984 214.94 13.101L220 29.7907H214.357L212.976 24.9118L211.591 20.0328L210.004 14.3507H204.297L199.943 29.7907H194.285L199.38 13.101Z" fill="white"/>
<path d="M174.453 17.6046V29.7907H169.465V12.2378C169.465 10.3613 170.488 9.19031 172.075 9.19031C172.836 9.19031 173.377 9.44176 174.084 10.0873L186.554 21.4064V9.22033H191.542V27.0247C191.542 28.9013 190.492 30.0722 188.936 30.0722C188.555 30.072 188.179 29.9918 187.832 29.8372C187.485 29.6826 187.175 29.4569 186.923 29.1752L174.453 17.6046Z" fill="white"/>
<path d="M12.6788 3.64705C12.0038 2.31685 10.8932 1.25047 9.52682 0.620751C8.16048 -0.00896481 6.61857 -0.165101 5.151 0.17765C3.68343 0.520402 2.37624 1.34195 1.4413 2.50913C0.50637 3.67631 -0.00150434 5.12071 3.34716e-06 6.6082V39.2596H4.4216V6.6082C4.42948 6.10723 4.60653 5.62316 4.92474 5.2326C5.24294 4.84204 5.68412 4.56731 6.17845 4.45188C6.67277 4.33645 7.19201 4.38692 7.65398 4.5953C8.11595 4.80368 8.49426 5.15807 8.72905 5.60238L23.6263 34.8986H18.6795L10.9132 19.6312H5.9665L15.9551 39.2596H30.7952L12.6788 3.64705Z" fill="#10E80C"/>
<path d="M40.6863 0.00283813V32.6543C40.6769 33.1539 40.4992 33.6363 40.1812 34.0255C39.8632 34.4146 39.4231 34.6883 38.93 34.8035C38.4369 34.9188 37.919 34.869 37.4578 34.6619C36.9967 34.4549 36.6184 34.1025 36.3826 33.6601L21.4854 4.36387H26.4321L34.1985 19.6312H39.1452L29.1604 0.00283813H14.3203L32.4291 35.6154C33.1053 36.9444 34.2165 38.0094 35.5827 38.6382C36.9489 39.267 38.4902 39.4227 39.9573 39.0802C41.4244 38.7377 42.7314 37.9169 43.6668 36.7507C44.6022 35.5846 45.1113 34.1412 45.1117 32.6543V0.00283813H40.6863Z" fill="#10E80C"/>
</svg>
