<svg width="200" height="27" viewBox="0 0 200 27" fill="none" xmlns="http://www.w3.org/2000/svg">
<path d="M6.2676 10.5717V25.8822H0V3.82881C0 1.47117 1.28124 0 3.27483 0C4.23098 0 4.91464 0.315924 5.80386 1.12695L21.4705 15.3483V0.0377213H27.7333V22.407C27.7333 24.7647 26.4186 26.2358 24.4584 26.2358C23.9805 26.2367 23.5079 26.1365 23.0725 25.9421C22.6371 25.7478 22.2489 25.4636 21.9342 25.1089L6.2676 10.5717Z" fill="black"/>
<path d="M45.1613 25.8822C37.6459 25.8822 32.1289 20.2663 32.1289 12.8539C32.1289 5.3377 37.6459 0.353638 45.1613 0.353638H51.6727C59.4032 0.353638 64.7434 5.44615 64.7434 12.8539C64.7434 20.2616 59.2598 25.8822 51.6727 25.8822H45.1613ZM51.6727 19.3892C55.5212 19.3892 58.1937 16.7864 58.1937 13.1698C58.1937 9.55316 55.483 6.81358 51.6727 6.81358H45.1613C44.3084 6.78948 43.4594 6.93741 42.6665 7.24831C41.8736 7.55921 41.1533 8.02653 40.55 8.62163C39.9466 9.21673 39.4728 9.92708 39.1576 10.7091C38.8424 11.4912 38.6924 12.3285 38.7168 13.1698C38.7168 16.8241 41.3845 19.3892 45.1613 19.3892H51.6727Z" fill="black"/>
<path d="M69.2419 25.8822V19.3892H88.9291C90.459 19.3892 91.3865 18.682 91.3865 17.4183C91.3865 16.1546 90.459 15.3482 88.9291 15.3482H77.3931C72.0912 15.3482 68.8164 12.3257 68.8164 7.90281C68.8164 3.58361 71.8761 0.358353 77.4648 0.358353H96.3011V6.81829H77.4648C77.2192 6.79817 76.9722 6.83179 76.7413 6.91676C76.5104 7.00174 76.3014 7.13596 76.1292 7.30985C75.957 7.48373 75.8259 7.69298 75.7452 7.92264C75.6645 8.15231 75.6363 8.39671 75.6625 8.63839C75.638 8.88096 75.6678 9.12587 75.7496 9.35589C75.8313 9.58592 75.9632 9.79548 76.1359 9.96986C76.3086 10.1442 76.5179 10.2792 76.7492 10.3652C76.9804 10.4513 77.228 10.4863 77.4744 10.4679H88.9483C94.6087 10.4679 97.6397 12.8256 97.6397 18.0124C97.6397 22.506 94.7712 25.8775 88.9483 25.8775L69.2419 25.8822Z" fill="black"/>
<path d="M106.628 4.91332C106.977 3.67062 107.659 2.54356 108.602 1.65034C109.53 0.787443 110.802 0.353637 112.427 0.353637H120.153C121.591 0.280699 123.004 0.743553 124.111 1.65034C125.102 2.52175 125.82 3.65365 126.181 4.91332L132.554 25.8822H125.445L123.71 19.7523L121.97 13.6224L119.976 6.47879H112.805L107.336 25.8775H100.227L106.628 4.91332Z" fill="black"/>
<path d="M174.093 4.91332C174.441 3.67113 175.121 2.54412 176.063 1.65034C176.99 0.787443 178.262 0.353637 179.887 0.353637H187.613C189.051 0.280699 190.464 0.743553 191.571 1.65034C192.562 2.52175 193.28 3.65365 193.641 4.91332L200 25.8822H192.91L191.175 19.7523L189.434 13.6224L187.441 6.48351H180.27L174.8 25.8822H167.691L174.093 4.91332Z" fill="black"/>
<path d="M142.775 10.5717V25.8822H136.508V3.82883C136.508 1.47118 137.794 1.52588e-05 139.787 1.52588e-05C140.744 1.52588e-05 141.422 0.315939 142.312 1.12697L157.978 15.3483V0.0377366H164.246V22.407C164.246 24.7647 162.926 26.2359 160.971 26.2359C160.493 26.2355 160.02 26.1349 159.584 25.9406C159.148 25.7463 158.758 25.4628 158.442 25.1089L142.775 10.5717Z" fill="black"/>
</svg>
